<svg width="299" height="35" viewBox="0 0 299 35" fill="none" xmlns="http://www.w3.org/2000/svg">
<path d="M273.867 1.2838C272.4 1.81714 269.467 4.21714 267.6 6.61714C263.6 11.2838 262.8 19.4171 265.733 25.2838C268 29.8171 275.6 34.6171 280.4 34.6171C289.067 34.6171 298.667 25.6838 298.667 17.4171C298.667 5.2838 285.333 -3.38286 273.867 1.2838Z" fill="#FD0000"/>
<path d="M0 17.2838V33.2838H8.66667H17.3333V17.2838V1.2838H8.66667H0V17.2838Z" fill="#FD0000"/>
<path d="M26.6667 8.61714C26.6667 15.0171 26.9333 15.9505 29.3333 15.9505C30.8 15.9505 32 16.2171 32 16.3505C32 16.6171 30.8 20.3505 29.3333 24.6171C27.8667 28.8838 26.6667 32.6171 26.6667 32.8838C26.6667 33.0171 33.8667 33.2838 42.6667 33.2838H58.6667V25.9505C58.6667 19.5505 58.4 18.6171 56 18.6171C52.6667 18.6171 52.6667 17.6838 56 9.01714C57.4667 5.15047 58.6667 1.81714 58.6667 1.55047C58.6667 1.41714 51.4667 1.2838 42.6667 1.2838H26.6667V8.61714Z" fill="#FD0000"/>
<path d="M68 8.61714C68 15.0171 68.2667 15.9505 70.6667 15.9505C74 15.9505 74 16.8838 70.6667 25.5505C69.2 29.4171 68 32.7505 68 32.8838C68 33.1505 75.2 33.2838 84 33.2838H100V26.0838C100 20.0838 99.6 18.8838 97.3333 18.2171C94.6667 17.5505 94.6667 17.5505 97.3333 9.81714C98.8 5.6838 100 1.95047 100 1.6838C100 1.55047 92.8 1.2838 84 1.2838H68V8.61714Z" fill="#FD0000"/>
<path d="M108 9.28382C108 16.8838 108.133 17.2838 111.333 17.2838C114.533 17.2838 114.667 17.6838 114.667 25.2838V33.4172L122.933 33.0172L131.333 32.6172V25.0172C131.333 17.9505 131.6 17.2838 134.4 17.2838C137.067 17.2838 137.333 16.7505 137.333 9.28382V1.28382H122.667H108V9.28382Z" fill="#FD0000"/>
<path d="M146.667 17.2838V33.2838H160H173.333V28.0838C173.333 23.2838 172.933 22.7505 169.733 22.2171L166 21.6838L169.733 21.4171C172.8 21.2838 173.333 20.7505 173.333 17.4171C173.333 14.0838 172.667 13.4171 169.733 12.8838L166 12.3505L169.733 12.0838C173.067 11.9505 173.333 11.5505 173.333 6.61714V1.2838H160H146.667V17.2838Z" fill="#FD0000"/>
<path d="M182.667 17.2838V33.2838H198C206.4 33.2838 213.333 33.0171 213.333 32.6171C213.333 32.2171 210.933 28.6171 207.867 24.6171L202.4 17.4171L206.533 11.4171C208.8 8.0838 211.333 5.01714 212 4.61714C215.867 2.21714 211.867 1.2838 198 1.2838H182.667V17.2838Z" fill="#FD0000"/>
<path d="M222.667 17.1505V33.2838H239.333H256V19.4171C256 11.8171 255.6 4.61713 255.2 3.41713C254.533 1.81713 252.533 1.2838 247.2 1.2838C239.6 1.2838 239.867 1.01713 239.467 8.61714C239.333 11.8171 236.533 11.5505 232.667 8.0838C231.2 6.75047 228.4 4.61713 226.4 3.2838L222.667 1.01713V17.1505Z" fill="#FD0000"/>
</svg>
