<svg width="128" height="128" viewBox="0 0 128 128" fill="none" xmlns="http://www.w3.org/2000/svg">
<rect width="128" height="128" fill="black"/>
<path d="M29.096 84H10.28V39.2H29.096V84ZM33.255 39.2H75.303L61.159 66.4H73.703V84H31.655L45.799 56.736H33.255V39.2ZM79.4425 39.2H121.491L107.347 66.4H119.891V84H77.8425L91.9865 56.736H79.4425V39.2Z" fill="#FF0000"/>
<path d="M25.096 87H6.28V42.2H25.096V87ZM29.255 42.2H71.303L57.159 69.4H69.703V87H27.655L41.799 59.736H29.255V42.2ZM75.4425 42.2H117.491L103.347 69.4H115.891V87H73.8425L87.9865 59.736H75.4425V42.2Z" fill="#FF0000" fill-opacity="0.14"/>
</svg>
